# Blender 3.3.1
# www.blender.org
o down_arrow
v 0.480000 0.960000 -0.480000
v 0.480000 0.960000 0.480000
v 0.000000 0.000000 0.000000
v -0.480000 0.960000 0.480000
v -0.279040 0.960000 0.279040
v -0.279040 2.885600 0.279040
v -0.279040 2.885600 -0.279040
v -0.279040 0.960000 -0.279040
v -0.480000 0.960000 -0.480000
v 0.279040 0.960000 -0.279040
v 0.279040 2.885600 -0.279040
v 0.279040 2.885600 0.279040
v 0.279040 0.960000 0.279040
vn -0.3015 0.9045 0.3015
vn -0.5774 0.5774 0.5774
vn -0.5774 0.5774 -0.5774
vn -0.3015 0.9045 -0.3015
vn 0.3015 0.9045 -0.3015
vn 0.5774 0.5774 -0.5774
vn 0.5774 0.5774 0.5774
vn 0.3015 0.9045 0.3015
vn 0.6626 0.3491 -0.6626
vn 0.6626 0.3491 0.6626
vn -0.0000 -1.0000 -0.0000
vn -0.6626 0.3491 0.6626
vn -0.6626 0.3491 -0.6626
s 1
f 5//1 6//2 7//3
f 5//1 7//3 8//4
f 10//5 11//6 12//7
f 10//5 12//7 13//8
f 11//6 7//3 6//2
f 11//6 6//2 12//7
f 6//2 5//1 13//8
f 6//2 13//8 12//7
f 11//6 10//5 8//4
f 11//6 8//4 7//3
f 1//9 2//10 3//11
f 2//10 4//12 3//11
f 3//11 9//13 1//9
f 3//11 4//12 9//13
f 5//1 4//12 13//8
f 2//10 13//8 4//12
f 8//4 9//13 5//1
f 4//12 5//1 9//13
f 9//13 10//5 1//9
f 2//10 1//9 10//5
f 2//10 10//5 13//8
f 8//4 10//5 9//13
